<svg xmlns="http://www.w3.org/2000/svg" viewBox="0 0 400 400">
    <path id="path0" d="M57.143 28.934 C 35.433 31.869,17.435 49.980,14.626 71.719 C 14.109 75.722,14.109 295.707,14.626 299.710 C 17.452 321.579,35.548 339.674,57.433 342.515 C 61.444 343.036,338.556 343.036,342.567 342.515 C 364.464 339.672,382.547 321.590,385.374 299.710 C 385.892 295.704,385.890 132.849,385.372 128.862 C 382.794 109.004,367.314 91.737,347.879 87.042 C 342.033 85.630,347.458 85.714,262.823 85.714 L 185.714 85.714 185.714 80.034 C 185.714 64.743,181.697 54.307,171.897 44.141 C 163.365 35.290,153.923 30.388,142.567 28.913 C 138.777 28.421,60.796 28.440,57.143 28.934 M270.424 90.744 C 278.491 91.148,289.471 94.999,297.545 100.256 C 316.080 112.325,326.591 133.865,324.795 156.097 C 324.649 157.916,324.478 159.536,324.416 159.697 C 324.337 159.903,324.623 160.034,325.377 160.139 C 342.395 162.496,353.249 171.610,356.914 186.621 C 358.168 191.755,358.155 191.320,357.622 211.161 C 357.502 215.642,357.395 244.599,357.385 275.511 L 357.366 331.714 356.896 332.654 C 354.573 337.292,347.874 337.397,345.545 332.831 C 345.031 331.823,344.827 215.358,345.320 204.799 C 345.673 197.255,345.612 193.635,345.089 191.069 C 342.949 180.571,336.651 174.826,325.150 172.881 C 321.079 172.193,321.251 172.191,320.939 172.935 C 311.163 196.280,291.692 210.373,267.522 211.596 C 232.424 213.371,203.869 186.357,203.712 151.228 C 203.685 145.228,203.737 144.650,204.818 138.951 C 209.109 116.316,227.172 97.567,250.067 91.981 C 255.867 90.566,260.835 90.264,270.424 90.744 M258.384 103.250 C 223.136 108.048,204.580 147.514,223.735 176.942 C 249.130 215.956,308.574 200.658,312.320 154.143 C 314.688 124.742,287.684 99.262,258.384 103.250 M178.571 245.239 C 184.476 246.195,190.872 248.945,195.553 252.541 L 197.428 253.981 198.435 253.205 C 209.098 244.988,222.380 242.640,234.933 246.755 C 244.706 249.959,251.962 256.195,257.148 265.848 C 262.181 275.215,268.987 280.404,279.828 283.139 C 290.154 285.743,302.682 284.461,318.939 279.136 C 326.391 276.696,327.781 276.662,330.105 278.863 C 333.267 281.857,332.382 285.801,326.207 296.230 C 312.151 319.970,293.296 334.694,271.763 338.743 C 269.150 339.234,256.924 339.457,253.310 339.078 C 240.650 337.753,227.161 332.221,211.942 322.113 C 209.241 320.319,205.843 318.201,204.392 317.406 C 202.940 316.610,200.786 315.238,199.605 314.355 C 198.425 313.472,197.378 312.800,197.278 312.862 C 197.179 312.923,196.257 313.607,195.230 314.381 C 194.204 315.156,192.320 316.369,191.046 317.078 C 187.713 318.931,185.509 320.303,182.589 322.343 C 172.681 329.265,160.679 334.848,149.748 337.619 C 141.701 339.659,128.412 339.948,120.759 338.251 C 100.335 333.721,82.672 319.528,68.857 296.546 C 62.544 286.045,61.606 282.450,64.363 279.318 C 66.728 276.631,68.258 276.605,75.905 279.125 C 106.126 289.084,128.428 284.442,137.500 266.305 C 143.692 253.925,155.245 246.051,169.085 244.780 C 170.791 244.623,176.463 244.897,178.571 245.239 " >
  </path>
</svg>