<svg xmlns="http://www.w3.org/2000/svg" viewBox="0 0 400 400"><path d="M57.143 28.934c-21.71 2.935-39.708 21.046-42.517 42.785-.517 4.003-.517 223.988 0 227.991 2.826 21.869 20.922 39.964 42.807 42.805 4.011.521 281.123.521 285.134 0 21.897-2.843 39.98-20.925 42.807-42.805.518-4.006.516-166.861-.002-170.848-2.578-19.858-18.058-37.125-37.493-41.82-5.846-1.412-.421-1.328-85.056-1.328h-77.109v-5.68c0-15.291-4.017-25.727-13.817-35.893-8.532-8.851-17.974-13.753-29.33-15.228-3.79-.492-81.771-.473-85.424.021m213.281 61.81c8.067.404 19.047 4.255 27.121 9.512 18.535 12.069 29.046 33.609 27.25 55.841-.146 1.819-.317 3.439-.379 3.6-.079.206.207.337.961.442 17.018 2.357 27.872 11.471 31.537 26.482 1.254 5.134 1.241 4.699.708 24.54-.12 4.481-.227 33.438-.237 64.35l-.019 56.203-.47.94c-2.323 4.638-9.022 4.743-11.351.177-.514-1.008-.718-117.473-.225-128.032.353-7.544.292-11.164-.231-13.73-2.14-10.498-8.438-16.243-19.939-18.188-4.071-.688-3.899-.69-4.211.054-9.776 23.345-29.247 37.438-53.417 38.661-35.098 1.775-63.653-25.239-63.81-60.368-.027-6 .025-6.578 1.106-12.277 4.291-22.635 22.354-41.384 45.249-46.97 5.8-1.415 10.768-1.717 20.357-1.237m-12.04 12.506c-35.248 4.798-53.804 44.264-34.649 73.692 25.395 39.014 84.839 23.716 88.585-22.799 2.368-29.401-24.636-54.881-53.936-50.893m-79.813 141.989c5.905.956 12.301 3.706 16.982 7.302l1.875 1.44 1.007-.776c10.663-8.217 23.945-10.565 36.498-6.45 9.773 3.204 17.029 9.44 22.215 19.093 5.033 9.367 11.839 14.556 22.68 17.291 10.326 2.604 22.854 1.322 39.111-4.003 7.452-2.44 8.842-2.474 11.166-.273 3.162 2.994 2.277 6.938-3.898 17.367-14.056 23.74-32.911 38.464-54.444 42.513-2.613.491-14.839.714-18.453.335-12.66-1.325-26.149-6.857-41.368-16.965-2.701-1.794-6.099-3.912-7.55-4.707-1.452-.796-3.606-2.168-4.787-3.051-1.18-.883-2.227-1.555-2.327-1.493-.099.061-1.021.745-2.048 1.519-1.026.775-2.91 1.988-4.184 2.697-3.333 1.853-5.537 3.225-8.457 5.265-9.908 6.922-21.91 12.505-32.841 15.276-8.047 2.04-21.336 2.329-28.989.632-20.424-4.53-38.087-18.723-51.902-41.705-6.313-10.501-7.251-14.096-4.494-17.228 2.365-2.687 3.895-2.713 11.542-.193 30.221 9.959 52.523 5.317 61.595-12.82 6.192-12.38 17.745-20.254 31.585-21.525 1.706-.157 7.378.117 9.486.459"/></svg>