<svg viewBox="0 0 1000 70" style="width:100%;max-height:100%" xmlns="http://www.w3.org/2000/svg"><path d="M962.844 61.707c-4.5 0-8.32-.31-11.461-.932-3.14-.62-5.696-1.693-7.664-3.216-1.969-1.524-3.399-3.563-4.29-6.118-.89-2.554-1.335-5.765-1.335-9.632 0-4.43.445-8.092 1.336-10.987.89-2.894 2.32-5.197 4.289-6.908 1.968-1.71 4.523-2.906 7.664-3.586 3.14-.68 6.96-1.02 11.46-1.02 3.212 0 5.995.235 8.35.704 2.356.469 4.371 1.148 6.047 2.039 1.676.89 3.035 1.969 4.078 3.234 1.043 1.266 1.864 2.596 2.461 3.99.598 1.395 1.008 3.03 1.23 4.905.223 1.875.335 3.855.335 5.941l-.563 2.25h-39.937c0 3.094.304 5.631.914 7.611.61 1.98 1.617 3.428 3.023 4.342 1.406.914 3.258 1.494 5.555 1.74 2.297.247 5.133.37 8.508.37 3.093 0 5.654-.088 7.681-.264 2.028-.176 3.639-.51 4.834-1.002 1.196-.492 2.034-1.178 2.514-2.057s.72-2.021.72-3.427h6.75c0 2.18-.38 4.037-1.142 5.572-.762 1.535-2.021 2.777-3.78 3.726-1.757.95-4.071 1.641-6.942 2.075-2.872.433-6.417.65-10.635.65zm0-36.773c-2.25 0-4.26.047-6.03.14-1.77.094-3.316.3-4.64.615-1.324.317-2.455.774-3.393 1.372-.937.597-1.693 1.3-2.267 2.109-.575.809-.996 1.945-1.266 3.41s-.404 3.229-.404 5.291h33.75c0-2.742-.293-4.892-.88-6.451-.585-1.559-1.51-2.842-2.777-3.85-1.265-1.007-2.894-1.699-4.886-2.074-1.992-.375-4.395-.562-7.207-.562zm-32.75 8.683c0-1.687-.123-3.088-.37-4.201a4.373 4.373 0 00-1.74-2.672c-.914-.668-2.267-1.137-4.06-1.406-1.793-.27-4.237-.404-7.33-.404-3.024 0-5.485.263-7.383.79-1.899.528-3.387 1.272-4.465 2.233-1.078.961-1.81 2.11-2.197 3.445-.387 1.336-.58 2.825-.58 4.465v25.067h-6.75v-40.5h6.75v6.433c.234-.726.668-1.529 1.3-2.408.633-.879 1.594-1.7 2.883-2.46 1.29-.763 2.96-1.401 5.01-1.917s4.611-.773 7.682-.773c3.515 0 6.375.31 8.578.931 2.203.621 3.92 1.535 5.15 2.742 1.23 1.208 2.063 2.702 2.496 4.483.434 1.781.65 3.832.65 6.152zm-49.66 21.762c-.07.281-.598.984-1.582 2.11-.704.843-1.641 1.587-2.813 2.232-1.172.644-2.736 1.148-4.693 1.511-1.957.364-4.53.545-7.717.545-4.242 0-7.863-.216-10.863-.65-3-.434-5.45-1.102-7.348-2.004-1.898-.902-3.287-2.057-4.166-3.463-.879-1.406-1.318-3.082-1.318-5.027 0-2.04.24-3.768.72-5.186.48-1.418 1.184-2.607 2.11-3.568.925-.961 2.045-1.711 3.357-2.25 1.313-.54 2.807-.95 4.483-1.23 1.675-.282 3.51-.458 5.501-.528 1.993-.07 4.114-.105 6.364-.105 3.21 0 5.894.134 8.05.404 2.157.27 3.92.61 5.292 1.02 1.37.41 2.408.85 3.11 1.318.704.469 1.208.902 1.513 1.3 0-2.624-.112-4.863-.334-6.714-.223-1.852-.586-3.399-1.09-4.64-.504-1.243-1.155-2.233-1.951-2.972-.797-.738-1.776-1.294-2.936-1.67-1.16-.374-2.514-.615-4.06-.72a78.98 78.98 0 00-5.31-.158c-3.093 0-5.66.076-7.698.228-2.04.153-3.657.451-4.852.897-1.195.445-2.039 1.06-2.531 1.845-.492.786-.738 1.81-.738 3.076h-6.75c0-2.132.38-3.937 1.142-5.414.762-1.476 2.028-2.677 3.797-3.603 1.77-.926 4.096-1.6 6.979-2.022 2.882-.421 6.433-.632 10.652-.632 4.125 0 7.617.34 10.476 1.02 2.86.679 5.174 1.874 6.944 3.585 1.77 1.711 3.047 4.014 3.832 6.908.785 2.895 1.178 6.557 1.178 10.987v19.125h-6.75zm-15.68 1.055c2.976 0 5.467-.141 7.47-.422 2.004-.281 3.616-.703 4.835-1.266 1.218-.562 2.085-1.265 2.601-2.11.516-.843.774-1.827.774-2.952s-.3-2.08-.897-2.866c-.598-.785-1.594-1.423-2.988-1.916-1.395-.492-3.24-.85-5.537-1.072-2.297-.223-5.133-.334-8.508-.334-3.375 0-6.1.059-8.174.176-2.074.117-3.674.387-4.799.808-1.125.422-1.88 1.043-2.267 1.864-.387.82-.58 1.933-.58 3.34 0 1.406.205 2.548.615 3.427.41.88 1.248 1.565 2.514 2.057 1.265.492 3.087.826 5.466 1.002 2.38.176 5.537.264 9.475.264zm-30.395-36h-7.875L813.97 55.87l-13.36-35.437h-6.75l-13.5 35.437-12.375-35.437h-7.875l15.75 40.5h9l12.375-33.188 12.375 33.188h9zm-80 22.5c0 3.445-.28 6.322-.843 8.63-.563 2.31-1.506 4.155-2.83 5.538-1.325 1.382-3.065 2.367-5.221 2.953-2.156.586-4.817.879-7.98.879-3.071 0-5.65-.235-7.735-.704-2.086-.468-3.773-1.265-5.063-2.39-1.289-1.125-2.214-2.625-2.777-4.5-.562-1.875-.844-4.219-.844-7.031v-20.32h-8.332v-5.555h8.332V9.359h6.75v11.075h25.418v5.554h-25.418v20.32c0 2.25.17 3.985.51 5.204.34 1.219.885 2.11 1.635 2.672.75.562 1.74.89 2.97.984 1.231.094 2.737.14 4.518.14 1.406 0 2.666-.023 3.78-.07 1.113-.047 2.085-.193 2.917-.44.832-.245 1.541-.62 2.127-1.124.586-.504 1.06-1.213 1.424-2.127.364-.914.627-2.068.791-3.463.164-1.395.246-3.111.246-5.15zm-62-17.368v35.368h-6.75V25.566h-6.75v-5.132h6.75v-.352c0-2.742.305-5.027.914-6.855.61-1.828 1.618-3.293 3.024-4.395 1.406-1.101 3.264-1.88 5.572-2.338 2.309-.457 5.15-.685 8.526-.685h7.84v5.625h-7.876c-2.132 0-3.914.047-5.343.14-1.43.094-2.584.41-3.463.95-.88.539-1.506 1.394-1.881 2.566s-.563 2.836-.563 4.992v.352h19.125v5.132zm-69.875 14.836c0-4.148.446-7.582 1.336-10.3.89-2.72 2.32-4.875 4.29-6.47 1.968-1.593 4.523-2.712 7.663-3.357 3.141-.644 6.961-.966 11.461-.966s8.32.322 11.461.966c3.14.645 5.696 1.764 7.664 3.358 1.97 1.594 3.399 3.75 4.29 6.469.89 2.718 1.335 6.152 1.335 10.3 0 4.149-.445 7.594-1.336 10.336-.89 2.743-2.32 4.922-4.289 6.54-1.968 1.617-4.523 2.76-7.664 3.427-3.14.668-6.96 1.002-11.46 1.002-4.5 0-8.321-.334-11.462-1.002-3.14-.668-5.695-1.81-7.664-3.428-1.968-1.617-3.398-3.796-4.289-6.539-.89-2.742-1.336-6.187-1.336-10.336zm6.75 0c0 2.25.082 4.207.246 5.871.165 1.665.475 3.094.932 4.29.457 1.195 1.096 2.168 1.916 2.917.82.75 1.899 1.348 3.235 1.793 1.335.446 2.958.75 4.869.915 1.91.164 4.177.246 6.802.246 2.25 0 4.26-.053 6.03-.159 1.77-.105 3.316-.345 4.64-.72 1.324-.375 2.455-.908 3.393-1.6.937-.691 1.693-1.635 2.267-2.83.575-1.195.997-2.666 1.266-4.412.27-1.746.404-3.85.404-6.31 0-2.415-.134-4.471-.404-6.17-.27-1.7-.691-3.124-1.266-4.272-.574-1.148-1.33-2.057-2.267-2.725-.938-.668-2.069-1.171-3.393-1.511-1.324-.34-2.87-.557-4.64-.65-1.77-.094-3.78-.141-6.03-.141-2.25 0-4.26.047-6.029.14-1.77.094-3.316.31-4.64.65-1.325.34-2.456.844-3.393 1.512-.938.668-1.693 1.577-2.268 2.725-.574 1.148-.996 2.572-1.265 4.271-.27 1.7-.405 3.756-.405 6.17zm-38.093-9.843c3.703 0 6.878.152 9.527.457 2.648.304 4.88.756 6.697 1.353 1.817.598 3.264 1.342 4.342 2.233 1.078.89 1.91 1.904 2.496 3.04.586 1.137.967 2.409 1.143 3.815.175 1.406.263 2.93.263 4.57 0 1.641-.146 3.182-.44 4.623a11.795 11.795 0 01-1.564 3.955c-.75 1.196-1.77 2.262-3.058 3.2-1.29.937-2.93 1.734-4.922 2.39-1.992.657-4.389 1.155-7.19 1.494-2.8.34-6.076.51-9.826.51h-9c-3.375 0-6.328-.129-8.859-.386-2.531-.258-4.71-.65-6.54-1.178-1.827-.528-3.339-1.196-4.534-2.004-1.196-.809-2.15-1.758-2.865-2.848-.715-1.09-1.213-2.332-1.495-3.726-.28-1.395-.421-2.936-.421-4.623h6.75c0 2.109.304 3.761.914 4.957.609 1.195 1.617 2.091 3.023 2.69 1.406.597 3.252.972 5.537 1.124 2.285.152 5.115.229 8.49.229h9c3.938 0 7.207-.188 9.809-.563 2.601-.375 4.676-.973 6.223-1.793 1.546-.82 2.636-1.892 3.27-3.217.632-1.324.948-2.935.948-4.834 0-1.898-.216-3.48-.65-4.746-.434-1.265-1.29-2.273-2.566-3.023-1.278-.75-3.077-1.283-5.397-1.6-2.32-.316-5.355-.474-9.105-.474h-9.282c-4.125 0-7.658-.153-10.6-.457-2.94-.305-5.407-.745-7.4-1.319-1.992-.574-3.586-1.289-4.78-2.144-1.196-.856-2.104-1.834-2.725-2.936-.622-1.101-1.026-2.326-1.213-3.674a31.836 31.836 0 01-.282-4.377c0-1.64.147-3.164.44-4.57a10.19 10.19 0 011.635-3.814c.796-1.137 1.886-2.15 3.27-3.041 1.382-.891 3.157-1.635 5.325-2.233 2.168-.597 4.776-1.049 7.823-1.353 3.046-.305 6.632-.457 10.757-.457h6.75c3.375 0 6.328.123 8.86.369 2.531.246 4.71.633 6.539 1.16 1.828.527 3.345 1.184 4.553 1.969 1.207.785 2.167 1.722 2.882 2.812.715 1.09 1.213 2.326 1.495 3.71.28 1.382.421 2.917.421 4.605h-6.75c0-2.11-.304-3.762-.914-4.957-.61-1.196-1.617-2.092-3.023-2.69-1.406-.597-3.258-.972-5.555-1.125-2.297-.152-5.133-.228-8.508-.228h-6.75c-4.5 0-8.203.158-11.109.474-2.906.317-5.203.85-6.89 1.6-1.688.75-2.86 1.758-3.516 3.023-.657 1.266-.985 2.848-.985 4.746 0 1.172.082 2.215.246 3.13.165.913.499 1.716 1.002 2.407.504.692 1.213 1.272 2.127 1.74.914.47 2.121.856 3.621 1.16 1.5.306 3.334.522 5.502.651 2.168.13 4.752.194 7.752.194zm-60.157 3.058c0-1.687-.123-3.088-.369-4.201a4.373 4.373 0 00-1.74-2.672c-.914-.668-2.268-1.137-4.06-1.406-1.794-.27-4.237-.404-7.33-.404-3.024 0-5.485.263-7.383.79-1.899.528-3.387 1.272-4.465 2.233-1.078.961-1.81 2.11-2.198 3.445-.386 1.336-.58 2.825-.58 4.465v25.067h-6.75v-40.5h6.75v6.433c.235-.726.668-1.529 1.301-2.408.633-.879 1.594-1.7 2.883-2.46 1.289-.763 2.959-1.401 5.01-1.917 2.05-.516 4.611-.773 7.681-.773 3.516 0 6.375.31 8.578.931 2.204.621 3.92 1.535 5.15 2.742 1.231 1.208 2.063 2.702 2.497 4.483.434 1.781.65 3.832.65 6.152zm-65.375 28.09c-4.5 0-8.32-.31-11.46-.932-3.141-.62-5.696-1.693-7.665-3.216-1.968-1.524-3.398-3.563-4.289-6.118-.89-2.554-1.336-5.765-1.336-9.632 0-4.43.446-8.092 1.336-10.987.89-2.894 2.32-5.197 4.29-6.908 1.968-1.71 4.523-2.906 7.663-3.586 3.141-.68 6.961-1.02 11.461-1.02 3.211 0 5.994.235 8.35.704 2.355.469 4.371 1.148 6.047 2.039 1.676.89 3.035 1.969 4.078 3.234 1.043 1.266 1.863 2.596 2.46 3.99.599 1.395 1.009 3.03 1.231 4.905.223 1.875.334 3.855.334 5.941l-.562 2.25h-39.938c0 3.094.305 5.631.914 7.611.61 1.98 1.618 3.428 3.024 4.342 1.406.914 3.258 1.494 5.555 1.74 2.296.247 5.132.37 8.507.37 3.094 0 5.655-.088 7.682-.264 2.027-.176 3.639-.51 4.834-1.002 1.195-.492 2.033-1.178 2.514-2.057.48-.879.72-2.021.72-3.427h6.75c0 2.18-.38 4.037-1.142 5.572-.762 1.535-2.022 2.777-3.78 3.726-1.757.95-4.072 1.641-6.943 2.075-2.871.433-6.416.65-10.635.65zm0-36.773c-2.25 0-4.26.047-6.029.14-1.77.094-3.316.3-4.64.615-1.325.317-2.456.774-3.393 1.372-.938.597-1.694 1.3-2.268 2.109-.574.809-.996 1.945-1.265 3.41-.27 1.465-.405 3.229-.405 5.291h33.75c0-2.742-.293-4.892-.879-6.451-.586-1.559-1.511-2.842-2.777-3.85-1.266-1.007-2.894-1.699-4.887-2.074-1.992-.375-4.394-.562-7.207-.562zm-56.375 36.773c-4.5 0-8.32-.328-11.46-.984-3.141-.657-5.696-1.782-7.665-3.375-1.968-1.594-3.398-3.739-4.289-6.434-.89-2.695-1.336-6.082-1.336-10.16 0-4.219.446-7.711 1.336-10.477.89-2.765 2.32-4.957 4.29-6.574 1.968-1.617 4.523-2.754 7.663-3.41 3.141-.656 6.961-.984 11.461-.984 3.188 0 5.86.164 8.016.492 2.156.328 3.92.738 5.291 1.23 1.371.493 2.414 1.026 3.129 1.6.715.574 1.236 1.107 1.564 1.6V6.933h6.75v54h-6.75v-6.012l-1.687 2.004a12.602 12.602 0 01-3.27 2.32c-1.195.586-2.87 1.143-5.027 1.67-2.156.527-4.828.791-8.016.791zm0-5.273c2.25 0 4.254-.053 6.012-.159 1.758-.105 3.305-.334 4.64-.685 1.337-.352 2.467-.873 3.393-1.565.926-.691 1.682-1.61 2.268-2.76.586-1.148 1.013-2.572 1.283-4.27.27-1.7.404-3.745.404-6.136 0-2.484-.134-4.6-.404-6.345-.27-1.746-.697-3.211-1.283-4.395-.586-1.183-1.342-2.115-2.268-2.795-.926-.68-2.056-1.2-3.392-1.564-1.336-.363-2.883-.592-4.64-.686a115.09 115.09 0 00-6.013-.14c-2.625 0-4.892.082-6.802.246-1.91.164-3.534.457-4.87.879-1.335.422-2.42 1.007-3.251 1.757-.833.75-1.477 1.711-1.934 2.883-.457 1.172-.762 2.584-.914 4.237-.152 1.652-.229 3.591-.229 5.818 0 2.203.077 4.12.229 5.748.152 1.629.457 3.023.914 4.184.457 1.16 1.101 2.115 1.934 2.865.832.75 1.916 1.336 3.251 1.758 1.336.422 2.96.714 4.87.879 1.91.164 4.177.246 6.802.246zm-40.625-49.5h6.75v54h-6.75zm-58.625 33.468c0-4.148.446-7.582 1.336-10.3.89-2.72 2.32-4.875 4.29-6.47 1.968-1.593 4.523-2.712 7.663-3.357 3.141-.644 6.961-.966 11.461-.966s8.32.322 11.461.966c3.14.645 5.696 1.764 7.664 3.358 1.97 1.594 3.399 3.75 4.29 6.469.89 2.718 1.335 6.152 1.335 10.3 0 4.149-.445 7.594-1.336 10.336-.89 2.743-2.32 4.922-4.289 6.54-1.968 1.617-4.523 2.76-7.664 3.427-3.14.668-6.96 1.002-11.46 1.002-4.5 0-8.321-.334-11.462-1.002-3.14-.668-5.695-1.81-7.664-3.428-1.968-1.617-3.398-3.796-4.289-6.539-.89-2.742-1.336-6.187-1.336-10.336zm6.75 0c0 2.25.082 4.207.246 5.871.165 1.665.475 3.094.932 4.29.457 1.195 1.096 2.168 1.916 2.917.82.75 1.899 1.348 3.235 1.793 1.335.446 2.958.75 4.869.915 1.91.164 4.177.246 6.802.246 2.25 0 4.26-.053 6.03-.159 1.77-.105 3.316-.345 4.64-.72 1.324-.375 2.455-.908 3.393-1.6.937-.691 1.693-1.635 2.267-2.83.575-1.195.996-2.666 1.266-4.412s.404-3.85.404-6.31c0-2.415-.134-4.471-.404-6.17-.27-1.7-.691-3.124-1.266-4.272-.574-1.148-1.33-2.057-2.267-2.725-.938-.668-2.069-1.171-3.393-1.511-1.324-.34-2.87-.557-4.64-.65-1.77-.094-3.78-.141-6.03-.141-2.25 0-4.26.047-6.029.14-1.77.094-3.316.31-4.64.65-1.325.34-2.456.844-3.393 1.512-.938.668-1.694 1.577-2.268 2.725-.574 1.148-.996 2.572-1.265 4.271-.27 1.7-.405 3.756-.405 6.17zM296.36 60.934V38.082c0-2.437-.187-4.494-.562-6.17-.375-1.676-1.125-3.03-2.25-4.06-1.125-1.032-2.719-1.776-4.781-2.233-2.063-.457-4.782-.685-8.157-.685-3.656 0-6.65.263-8.982.79-2.332.528-4.166 1.266-5.502 2.215-1.336.95-2.256 2.092-2.76 3.428-.504 1.336-.756 2.824-.756 4.465v25.102h-6.75v-54h6.75v19.898a8.158 8.158 0 012.004-2.848 12.799 12.799 0 013.006-2.039 18.996 18.996 0 013.674-1.353 35.342 35.342 0 013.99-.791 47.423 47.423 0 013.973-.387c1.3-.07 2.502-.105 3.603-.105 3 0 5.584.181 7.752.545 2.168.363 4.008.902 5.52 1.617 1.512.715 2.724 1.6 3.639 2.654.914 1.055 1.623 2.28 2.126 3.674.504 1.394.838 2.953 1.002 4.676.164 1.722.246 3.591.247 5.607l-.036 22.852zm-71 .773c-4.5 0-8.32-.31-11.46-.932-3.141-.62-5.696-1.693-7.665-3.216-1.968-1.524-3.398-3.563-4.289-6.118-.89-2.554-1.336-5.765-1.336-9.632 0-4.43.446-8.092 1.336-10.987.89-2.894 2.32-5.197 4.29-6.908 1.968-1.71 4.523-2.906 7.663-3.586 3.141-.68 6.961-1.02 11.461-1.02 3.211 0 5.994.235 8.35.704 2.355.469 4.371 1.148 6.047 2.039 1.676.89 3.035 1.969 4.078 3.234 1.043 1.266 1.863 2.596 2.46 3.99.599 1.395 1.009 3.03 1.231 4.905.223 1.875.334 3.855.334 5.941l-.562 2.25H207.36c0 3.094.305 5.631.914 7.611.61 1.98 1.618 3.428 3.024 4.342 1.406.914 3.258 1.494 5.555 1.74 2.296.247 5.132.37 8.507.37 3.094 0 5.655-.088 7.682-.264 2.027-.176 3.639-.51 4.834-1.002 1.195-.492 2.033-1.178 2.514-2.057.48-.879.72-2.021.72-3.427h6.75c0 2.18-.38 4.037-1.142 5.572-.762 1.535-2.022 2.777-3.78 3.726-1.757.95-4.072 1.641-6.943 2.075-2.871.433-6.416.65-10.635.65zm0-36.773c-2.25 0-4.26.047-6.029.14-1.77.094-3.316.3-4.64.615-1.325.317-2.456.774-3.393 1.372-.938.597-1.693 1.3-2.268 2.109-.574.809-.996 1.945-1.265 3.41-.27 1.465-.405 3.229-.405 5.291h33.75c0-2.742-.293-4.892-.879-6.451-.586-1.559-1.511-2.842-2.777-3.85-1.266-1.007-2.894-1.699-4.887-2.074-1.992-.375-4.394-.562-7.207-.562zm-78.875 15.82c0-2.813.141-5.297.422-7.453.281-2.156.78-4.031 1.494-5.625.715-1.594 1.676-2.924 2.883-3.99 1.207-1.067 2.73-1.928 4.57-2.584 1.84-.657 4.026-1.125 6.557-1.407 2.531-.28 5.485-.421 8.86-.422 4.5 0 8.203.276 11.109.827 2.906.55 5.203 1.394 6.89 2.53 1.688 1.138 2.86 2.579 3.516 4.325.656 1.746.984 3.826.985 6.24h-6.75c0-.867-.024-1.675-.07-2.425a5.446 5.446 0 00-.51-2.04c-.294-.609-.756-1.154-1.39-1.634-.632-.48-1.534-.885-2.706-1.213-1.172-.328-2.655-.574-4.448-.738-1.793-.164-4.001-.246-6.626-.247-3 0-5.526.106-7.577.317-2.05.21-3.744.557-5.08 1.037-1.336.48-2.367 1.125-3.093 1.934-.727.808-1.254 1.798-1.582 2.97-.329 1.172-.522 2.55-.58 4.131a149.62 149.62 0 00-.088 5.467c0 2.016.029 3.803.087 5.361.059 1.559.252 2.918.58 4.078.329 1.16.856 2.14 1.583 2.936.726.797 1.757 1.441 3.093 1.934 1.336.492 3.03.843 5.08 1.054 2.051.211 4.577.317 7.577.317 2.625 0 4.833-.094 6.626-.282 1.793-.187 3.276-.457 4.448-.808 1.172-.352 2.074-.785 2.707-1.301.633-.516 1.095-1.107 1.388-1.775a6.393 6.393 0 00.51-2.215c.047-.809.07-1.682.07-2.62h6.75c0 2.462-.328 4.594-.984 6.4-.656 1.804-1.828 3.286-3.515 4.446-1.688 1.16-3.985 2.022-6.891 2.584-2.906.563-6.61.844-11.11.844-3.374 0-6.328-.14-8.859-.422-2.531-.281-4.717-.744-6.556-1.388-1.84-.645-3.364-1.495-4.57-2.55-1.208-1.054-2.169-2.355-2.884-3.902-.714-1.547-1.213-3.369-1.494-5.466-.281-2.098-.422-4.506-.422-7.225zm-13.66 14.625c-.07.281-.597.984-1.582 2.11-.703.843-1.64 1.587-2.812 2.232-1.172.644-2.737 1.148-4.694 1.511-1.957.364-4.529.545-7.716.545-4.243 0-7.864-.216-10.864-.65-3-.434-5.449-1.102-7.347-2.004-1.899-.902-3.288-2.057-4.166-3.463-.88-1.406-1.319-3.082-1.319-5.027 0-2.04.24-3.768.72-5.186.481-1.418 1.185-2.607 2.11-3.568.926-.961 2.045-1.711 3.358-2.25 1.312-.54 2.806-.95 4.482-1.23 1.676-.282 3.51-.458 5.502-.528s4.113-.105 6.363-.105c3.211 0 5.895.134 8.051.404 2.156.27 3.92.61 5.291 1.02 1.371.41 2.408.85 3.112 1.318.703.469 1.206.902 1.511 1.3 0-2.624-.111-4.863-.334-6.714-.222-1.852-.586-3.399-1.09-4.64-.504-1.243-1.154-2.233-1.95-2.972-.798-.738-1.776-1.294-2.936-1.67-1.16-.374-2.514-.615-4.06-.72a78.98 78.98 0 00-5.31-.158c-3.093 0-5.66.076-7.699.228-2.039.153-3.656.451-4.851.897-1.196.445-2.04 1.06-2.531 1.845-.493.786-.739 1.81-.739 3.076h-6.75c0-2.132.381-3.937 1.143-5.414.762-1.476 2.027-2.677 3.797-3.603 1.77-.926 4.095-1.6 6.978-2.022 2.883-.421 6.434-.632 10.653-.632 4.125 0 7.617.34 10.476 1.02 2.86.679 5.174 1.874 6.943 3.585 1.77 1.711 3.047 4.014 3.832 6.908.786 2.895 1.178 6.557 1.178 10.987v19.125h-6.75zm-15.68 1.055c2.977 0 5.467-.141 7.471-.422 2.004-.281 3.615-.703 4.834-1.266 1.219-.562 2.086-1.265 2.602-2.11.515-.843.773-1.827.773-2.952s-.299-2.08-.896-2.866c-.598-.785-1.594-1.423-2.989-1.916-1.394-.492-3.24-.85-5.537-1.072-2.297-.223-5.132-.334-8.507-.334s-6.1.059-8.174.176c-2.075.117-3.674.387-4.8.808-1.124.422-1.88 1.043-2.267 1.864-.386.82-.58 1.933-.58 3.34 0 1.406.205 2.548.615 3.427.41.88 1.248 1.565 2.514 2.057 1.266.492 3.088.826 5.467 1.002 2.379.176 5.537.264 9.475.264zM75.5 6.934h6.75v54H75.5zm-68.75 0h40.57c3.352 0 6.182.146 8.49.44 2.31.292 4.213.732 5.713 1.317 1.5.586 2.655 1.313 3.463 2.18a7.997 7.997 0 011.776 3.059c.375 1.172.591 2.484.65 3.937.059 1.453.088 3.059.088 4.817a96.21 96.21 0 01-.123 5.062c-.082 1.547-.352 2.947-.809 4.201a8.573 8.573 0 01-2.18 3.305c-.995.95-2.413 1.74-4.253 2.373-1.84.633-4.172 1.113-6.996 1.441-2.825.329-6.3.493-10.424.493H13.5v21.375H6.75zm6.75 27h29.215c3 0 5.525-.053 7.576-.159 2.05-.105 3.744-.298 5.08-.58 1.336-.28 2.367-.68 3.094-1.195a4.513 4.513 0 001.6-2.039c.34-.844.538-1.857.597-3.041a87.53 87.53 0 00.088-4.236c0-1.524-.03-2.836-.088-3.938-.059-1.101-.258-2.027-.598-2.777a4.01 4.01 0 00-1.6-1.793c-.726-.445-1.757-.791-3.093-1.037-1.336-.246-3.03-.405-5.08-.475-2.05-.07-4.576-.105-7.576-.105H13.5z"/></svg>